<?xml version="1.0" encoding="utf-8"?>
<!-- Generator: Adobe Illustrator 27.0.0, SVG Export Plug-In . SVG Version: 6.00 Build 0)  -->
<svg version="1.1" id="Layer_1" xmlns="http://www.w3.org/2000/svg" xmlns:xlink="http://www.w3.org/1999/xlink" x="0px" y="0px"
	 viewBox="0 0 512 512" style="enable-background:new 0 0 512 512;" xml:space="preserve">
<style type="text/css">
	.st0{fill:#CD6799;}
</style>
<g id="XMLID_1_">
	<path id="XMLID_8_" class="st0" d="M440.97,284.76c-17.81,0.14-33.38,4.35-46.43,10.8c-4.77-9.4-9.54-17.81-10.38-23.99
		c-0.98-7.15-2.1-11.64-0.98-20.2c1.12-8.56,6.17-20.9,6.03-21.74c-0.14-0.98-1.12-5.33-11.36-5.47
		c-10.24-0.14-19.22,1.96-20.2,4.63c-0.98,2.67-2.95,8.84-4.35,15.29c-1.82,9.4-20.62,42.78-31.28,60.18
		c-3.51-6.87-6.45-12.76-7.15-17.53c-0.98-7.15-2.1-11.64-0.98-20.2c1.12-8.56,6.17-20.9,6.03-21.74
		c-0.14-0.98-1.12-5.33-11.36-5.47c-10.24-0.14-19.22,1.96-20.2,4.63c-0.98,2.67-2.1,9.12-4.35,15.29
		c-2.1,6.17-27.07,61.86-33.66,76.31c-3.37,7.43-6.31,13.33-8.28,17.25c0,0-0.14,0.28-0.42,0.7c-1.82,3.51-2.81,5.33-2.81,5.33
		s0,0,0,0.14c-1.4,2.52-2.95,4.91-3.65,4.91c-0.56,0-1.54-6.73,0.14-15.85c3.79-19.36,12.62-49.51,12.48-50.5
		c0-0.56,1.68-5.75-5.75-8.56c-7.29-2.67-9.96,1.82-10.52,1.82c-0.7,0-1.12,1.54-1.12,1.54s8.14-33.8-15.57-33.8
		c-14.73,0-35.21,16.13-45.31,30.72c-6.31,3.51-19.92,10.8-34.37,18.8c-5.47,3.09-11.22,6.17-16.55,9.12
		c-0.42-0.42-0.7-0.84-1.12-1.26c-28.61-30.58-81.5-52.18-79.25-93.28c0.84-15.01,6.03-54.28,101.69-101.98
		c78.69-38.85,141.39-28.05,152.19-4.21c15.57,34.09-33.52,97.21-114.88,106.46c-31,3.51-47.27-8.56-51.48-13.04
		c-4.35-4.63-4.91-4.91-6.59-4.07c-2.67,1.4-0.98,5.61,0,8c2.38,6.31,12.48,17.53,29.32,23.14c15.01,4.91,51.34,7.57,95.38-9.4
		c49.23-19.08,87.81-72.1,76.45-116.56c-11.36-45.03-86.12-59.89-156.96-34.79c-42.08,15.01-87.67,38.57-120.49,69.15
		C3.9,181.8-2.28,213.5,0.25,226.83c9.12,47.13,74.06,77.85,100.01,100.57c-1.26,0.7-2.52,1.4-3.51,1.96
		c-13.04,6.45-62.56,32.4-74.9,59.75c-14.03,31,2.24,53.3,13.04,56.25c33.38,9.26,67.75-7.43,86.12-34.93
		c18.38-27.49,16.13-63.26,7.71-79.53c-0.14-0.14-0.14-0.42-0.42-0.56c3.37-1.96,6.87-4.07,10.24-6.03
		c6.59-3.93,13.19-7.57,18.8-10.52c-3.23,8.7-5.47,19.08-6.59,34.09c-1.4,17.53,5.75,40.4,15.29,49.37
		c4.21,3.93,9.12,4.07,12.34,4.07c11.08,0,15.99-9.12,21.46-20.06c6.73-13.33,12.76-28.76,12.76-28.76s-7.57,41.66,13.04,41.66
		c7.43,0,15.01-9.68,18.38-14.73c0,0.14,0,0.14,0,0.14s0.14-0.28,0.56-0.98c0.7-1.26,1.26-1.96,1.26-1.96v-0.14
		c2.95-5.19,9.68-17.11,19.78-36.89c12.9-25.39,25.39-57.23,25.39-57.23s1.12,7.71,4.91,20.62c2.24,7.57,6.87,15.85,10.66,23.99
		c-2.95,4.21-4.91,6.59-4.91,6.59s0,0,0.14,0.14c-2.38,3.23-5.05,6.59-8,9.96c-10.24,12.2-22.3,26.09-23.99,30.16
		c-1.96,4.77-1.54,8.28,2.24,11.08c2.67,2.1,7.57,2.38,12.48,2.1c9.12-0.7,15.57-2.95,18.8-4.35c4.91-1.82,10.8-4.49,16.13-8.56
		c9.96-7.43,16.13-17.95,15.57-31.84c-0.28-7.71-2.81-15.29-5.89-22.58c0.98-1.26,1.82-2.67,2.67-3.93
		c15.85-23.14,28.05-48.39,28.05-48.39s1.12,7.71,4.91,20.62c1.82,6.59,5.75,13.61,9.12,20.62c-14.87,12.06-23.99,26.09-27.35,35.21
		c-5.89,16.97-1.26,24.69,7.43,26.51c3.93,0.84,9.54-0.98,13.61-2.81c5.19-1.68,11.36-4.63,17.25-8.84
		c9.96-7.43,19.64-17.67,19.08-31.56c-0.28-6.31-1.96-12.62-4.35-18.66c12.62-5.19,28.9-8.14,49.66-5.75
		c44.47,5.19,53.3,32.96,51.62,44.75c-1.68,11.64-11.08,18.09-14.17,20.06c-3.09,1.96-4.07,2.67-3.79,4.07
		c0.42,2.1,1.82,1.96,4.49,1.54c3.65-0.7,23.42-9.4,24.27-31C513.49,314.5,487.26,284.48,440.97,284.76z M97.59,400.48
		c-14.73,16.13-35.35,22.16-44.18,16.97c-9.54-5.47-5.75-29.32,12.34-46.29c11.08-10.38,25.25-20.06,34.65-25.95
		c2.1-1.26,5.33-3.23,9.12-5.47c0.7-0.42,0.98-0.56,0.98-0.56c0.7-0.42,1.54-0.98,2.24-1.4
		C119.48,362.19,113.16,383.65,97.59,400.48z M205.18,327.4c-5.19,12.48-15.85,44.61-22.44,42.78c-5.61-1.54-9.12-25.81-1.12-49.8
		c4.07-12.06,12.48-26.51,17.53-32.12c8-8.98,16.97-11.92,19.08-8.28C220.89,284.76,208.27,319.55,205.18,327.4z M293.83,369.9
		c-2.1,1.12-4.21,1.82-5.19,1.26c-0.7-0.42,0.98-1.82,0.98-1.82s11.08-11.92,15.57-17.39c2.52-3.23,5.47-6.87,8.7-11.08
		c0,0.42,0,0.84,0,1.26C313.89,356.3,300,365.98,293.83,369.9z M362.28,354.19c-1.54-1.12-1.26-4.91,4.07-16.55
		c2.1-4.63,6.87-12.2,15.29-19.64c0.98,2.95,1.54,5.89,1.54,8.56C383.04,344.66,370.14,351.39,362.28,354.19z"/>
</g>
</svg>
